<svg width="44" height="44" viewBox="0 0 44 44" fill="none" xmlns="http://www.w3.org/2000/svg">
    <rect width="44" height="44" rx="10" fill="#F0F5FF"/>
    <path d="M31.2799 16.4001L21.7399 25.94C20.7899 26.89 17.9699 27.33 17.3399 26.7C16.7099 26.07 17.1399 23.25 18.0899 22.3L27.6399 12.75C27.8754 12.4931 28.1605 12.2865 28.4781 12.1428C28.7956 11.9991 29.139 11.9212 29.4875 11.9139C29.8359 11.9066 30.1823 11.9699 30.5056 12.1001C30.8289 12.2303 31.1225 12.4247 31.3686 12.6715C31.6147 12.9183 31.8083 13.2124 31.9376 13.5361C32.0669 13.8598 32.1294 14.2063 32.1211 14.5547C32.1128 14.9032 32.0339 15.2464 31.8894 15.5635C31.7448 15.8807 31.5375 16.1652 31.2799 16.4001Z" stroke="#12151C" stroke-width="1.5" stroke-linecap="round" stroke-linejoin="round"/>
    <path d="M21 14H16C14.9391 14 13.9218 14.4214 13.1716 15.1716C12.4215 15.9217 12 16.9391 12 18V28C12 29.0609 12.4215 30.0783 13.1716 30.8284C13.9218 31.5786 14.9391 32 16 32H27C29.21 32 30 30.2 30 28V23" stroke="#12151C" stroke-width="1.5" stroke-linecap="round" stroke-linejoin="round"/>
</svg>
