<svg width="44" height="44" viewBox="0 0 44 44" fill="none" xmlns="http://www.w3.org/2000/svg">
    <rect width="44" height="44" rx="10" fill="#F0F5FF"/>
    <path d="M30.965 17C30.8873 15.1277 30.6366 13.9797 29.8284 13.1716C28.6569 12 26.7712 12 23 12H21C17.2288 12 15.3431 12 14.1716 13.1716C13 14.3431 13 16.2288 13 20V24C13 27.7712 13 29.6569 14.1716 30.8284C15.3431 32 17.2288 32 21 32H23C26.7712 32 28.6569 32 29.8284 30.8284C31 29.6569 31 27.7712 31 24V21" stroke="#12151C" stroke-width="1.5" stroke-linecap="round"/>
    <path d="M16 22C16 20.5858 16 19.8787 16.4393 19.4393C16.8787 19 17.5858 19 19 19H25C26.4142 19 27.1213 19 27.5607 19.4393C28 19.8787 28 20.5858 28 22V26C28 27.4142 28 28.1213 27.5607 28.5607C27.1213 29 26.4142 29 25 29H19C17.5858 29 16.8787 29 16.4393 28.5607C16 28.1213 16 27.4142 16 26V22Z" stroke="#12151C" stroke-width="1.5"/>
    <path d="M17 16H22" stroke="#12151C" stroke-width="1.5" stroke-linecap="round"/>
</svg>
