<svg width="24" height="24" viewBox="0 0 24 24" fill="none" xmlns="http://www.w3.org/2000/svg">
<g clip-path="url(#clip0_2246_157)">
<path d="M22.9096 20.7273H7.64182C7.04073 20.7273 6.55091 20.2385 6.55091 19.6369V18.5465C6.55091 18.3469 6.66055 18.1636 6.83564 18.0676L12.1735 15.1565C10.3855 13.2229 10.3658 10.4874 10.3658 10.3609L10.3691 7.09199C10.3691 7.06145 10.3718 7.03145 10.3767 7.00199C10.7525 4.77327 13.2131 3.27654 15.2755 3.27654H15.2776C17.3389 3.27654 19.7989 4.77217 20.1758 7.00036C20.1807 7.03036 20.1835 7.0609 20.1835 7.0909L20.1851 10.3604C20.1851 10.4864 20.1655 13.2218 18.378 15.1554L23.7158 18.0665C23.8909 18.1625 24 18.3458 24 18.5454V19.6369C24 20.2385 23.5107 20.7273 22.9096 20.7273ZM17.196 15.7527C17.0362 15.6654 16.9304 15.5045 16.9135 15.3234C16.8971 15.1424 16.9724 14.9651 17.1131 14.8505C19.0751 13.26 19.0947 10.3898 19.0947 10.3609L19.0925 7.13945C18.786 5.50308 16.8453 4.36636 15.2755 4.36636C13.7051 4.3669 11.7655 5.50417 11.46 7.14054L11.4567 10.362C11.4567 10.3898 11.4867 13.2693 13.4378 14.8516C13.5791 14.9662 13.6544 15.1434 13.6375 15.3245C13.6211 15.5056 13.5153 15.6665 13.3555 15.7538L7.64182 18.8705V19.6369H22.9085L22.9091 18.87L17.196 15.7527ZM10.1711 4.64727C9.68945 4.46017 9.18982 4.36199 8.72455 4.36199C7.15418 4.36254 5.214 5.49981 4.90855 7.13618L4.90527 10.3576C4.90527 10.386 4.93473 13.2649 6.88636 14.8473C7.02764 14.9618 7.10291 15.1391 7.08655 15.3202C7.06964 15.5013 6.96382 15.6622 6.804 15.7494L1.09036 18.8662V19.6325H4.908C5.20909 19.6325 5.45291 19.8769 5.45291 20.178C5.45291 20.4791 5.20909 20.7234 4.908 20.7234H1.09036C0.489273 20.7234 0 20.2342 0 19.6325V18.5422C0 18.3431 0.109091 18.1593 0.284182 18.0638L5.622 15.1522C3.83455 13.2185 3.81436 10.4831 3.81436 10.3571L3.81764 7.08763C3.81764 7.05763 3.82036 7.02708 3.82527 6.99763C4.20109 4.76945 6.66164 3.27272 8.72455 3.27272C8.72673 3.27272 8.73 3.27272 8.73273 3.27272C9.32782 3.27272 9.96109 3.39654 10.5649 3.63054C10.8464 3.73963 10.9855 4.05545 10.8769 4.33581C10.7673 4.61672 10.4498 4.75636 10.1711 4.64727Z" fill="white" stroke="white" stroke-width="0.5"/>
</g>
<defs>
<clipPath id="clip0_2246_157">
<rect width="24" height="24" fill="white"/>
</clipPath>
</defs>
</svg>
