<svg width="44" height="44" viewBox="0 0 44 44" fill="none" xmlns="http://www.w3.org/2000/svg">
<rect width="44" height="44" rx="10" fill="#F0F5FF"/>
<path d="M32.9096 30.7273H17.6418C17.0407 30.7273 16.5509 30.2385 16.5509 29.6369V28.5465C16.5509 28.3469 16.6605 28.1636 16.8356 28.0676L22.1735 25.1565C20.3855 23.2229 20.3658 20.4874 20.3658 20.3609L20.3691 17.092C20.3691 17.0614 20.3718 17.0314 20.3767 17.002C20.7525 14.7733 23.2131 13.2765 25.2755 13.2765H25.2776C27.3389 13.2765 29.7989 14.7722 30.1758 17.0003C30.1807 17.0303 30.1835 17.0609 30.1835 17.0909L30.1851 20.3603C30.1851 20.4863 30.1655 23.2218 28.378 25.1554L33.7158 28.0665C33.8909 28.1625 34 28.3458 34 28.5454V29.6369C34 30.2385 33.5107 30.7273 32.9096 30.7273ZM27.196 25.7527C27.0362 25.6654 26.9304 25.5045 26.9135 25.3234C26.8971 25.1423 26.9724 24.9651 27.1131 24.8505C29.0751 23.26 29.0947 20.3898 29.0947 20.3609L29.0925 17.1394C28.786 15.5031 26.8453 14.3663 25.2755 14.3663C23.7051 14.3669 21.7655 15.5042 21.46 17.1405L21.4567 20.362C21.4567 20.3898 21.4867 23.2693 23.4378 24.8516C23.5791 24.9662 23.6544 25.1434 23.6375 25.3245C23.6211 25.5056 23.5153 25.6665 23.3555 25.7538L17.6418 28.8705V29.6369H32.9085L32.9091 28.87L27.196 25.7527ZM20.1711 14.6473C19.6895 14.4602 19.1898 14.362 18.7245 14.362C17.1542 14.3625 15.214 15.4998 14.9085 17.1362L14.9053 20.3576C14.9053 20.386 14.9347 23.2649 16.8864 24.8473C17.0276 24.9618 17.1029 25.1391 17.0865 25.3202C17.0696 25.5013 16.9638 25.6622 16.804 25.7494L11.0904 28.8662V29.6325H14.908C15.2091 29.6325 15.4529 29.8769 15.4529 30.178C15.4529 30.4791 15.2091 30.7234 14.908 30.7234H11.0904C10.4893 30.7234 10 30.2342 10 29.6325V28.5422C10 28.3431 10.1091 28.1593 10.2842 28.0638L15.622 25.1522C13.8345 23.2185 13.8144 20.4831 13.8144 20.3571L13.8176 17.0876C13.8176 17.0576 13.8204 17.0271 13.8253 16.9976C14.2011 14.7694 16.6616 13.2727 18.7245 13.2727C18.7267 13.2727 18.73 13.2727 18.7327 13.2727C19.3278 13.2727 19.9611 13.3965 20.5649 13.6305C20.8464 13.7396 20.9855 14.0554 20.8769 14.3358C20.7673 14.6167 20.4498 14.7563 20.1711 14.6473Z" fill="#12151C" stroke="#12151C" stroke-width="0.5"/>
</svg>
