<svg width="44" height="44" viewBox="0 0 44 44" fill="none" xmlns="http://www.w3.org/2000/svg">
<rect width="44" height="44" rx="10" fill="#F0F5FF"/>
<path d="M14 29V16.2C14 15.0799 14 14.5198 14.218 14.092C14.4097 13.7157 14.7157 13.4097 15.092 13.218C15.5198 13 16.0799 13 17.2 13H26.8C27.9201 13 28.4802 13 28.908 13.218C29.2843 13.4097 29.5903 13.7157 29.782 14.092C30 14.5198 30 15.0799 30 16.2V27H16C14.8954 27 14 27.8954 14 29ZM14 29C14 30.1046 14.8954 31 16 31H30M19 17H25M19 21H25M29 27V31" stroke="#12151C" stroke-width="1.5" stroke-linecap="round" stroke-linejoin="round"/>
</svg>
