<svg width="44" height="40" viewBox="0 0 44 40" fill="none" xmlns="http://www.w3.org/2000/svg">
<path d="M17.8333 11.6667C17.1703 11.6667 16.5344 11.9301 16.0656 12.3989C15.5967 12.8678 15.3333 13.5036 15.3333 14.1667V25.8334C15.3333 26.4964 15.5967 27.1323 16.0656 27.6011C16.5344 28.07 17.1703 28.3334 17.8333 28.3334H26.1667C26.8297 28.3334 27.4656 28.07 27.9344 27.6011C28.4033 27.1323 28.6667 26.4964 28.6667 25.8334V25C28.6667 24.5398 28.2936 24.1667 27.8333 24.1667C27.3731 24.1667 27 24.5398 27 25V25.8334C27 26.0544 26.9122 26.2663 26.7559 26.4226C26.5996 26.5789 26.3877 26.6667 26.1667 26.6667H17.8333C17.6123 26.6667 17.4004 26.5789 17.2441 26.4226C17.0878 26.2663 17 26.0544 17 25.8334V14.1667C17 13.9457 17.0878 13.7337 17.2441 13.5774C17.4004 13.4212 17.6123 13.3334 17.8333 13.3334H26.1667C26.3877 13.3334 26.5996 13.4212 26.7559 13.5774C26.9122 13.7337 27 13.9457 27 14.1667V15C27 15.4603 27.3731 15.8334 27.8333 15.8334C28.2936 15.8334 28.6667 15.4603 28.6667 15V14.1667C28.6667 13.5036 28.4033 12.8678 27.9344 12.3989C27.4656 11.9301 26.8297 11.6667 26.1667 11.6667H17.8333Z" fill="#A94242"/>
<path d="M25.9226 16.9108C25.5972 16.5853 25.0695 16.5853 24.7441 16.9108C24.4186 17.2362 24.4186 17.7638 24.7441 18.0893L25.8215 19.1667H22C21.5398 19.1667 21.1667 19.5398 21.1667 20C21.1667 20.4603 21.5398 20.8334 22 20.8334H25.8215L24.7441 21.9108C24.4186 22.2362 24.4186 22.7638 24.7441 23.0893C25.0695 23.4147 25.5972 23.4147 25.9226 23.0893L28.4226 20.5893C28.748 20.2638 28.748 19.7362 28.4226 19.4108L25.9226 16.9108Z" fill="#A94242"/>
</svg>
